<svg width="246" height="1250" viewBox="0 0 246 1250" fill="none" xmlns="http://www.w3.org/2000/svg">
<g filter="url(#filter0_d_710_288)">
<path d="M9 162.7C18 159.3 26.8 156.1 35.4 153.1C44.2 150.1 53.1 147 62.1 143.8V49.6L9 30.7V0.4C31 8.4 51.3 15.9 69.9 22.9C88.7 29.9 106.5 36.7 123.3 43.3C140.1 50.1 156.1 56.8 171.3 63.4C186.7 70 201.9 76.9 216.9 84.1V110.8C201.9 118 186.7 124.9 171.3 131.5C156.1 138.1 140.1 144.7 123.3 151.3C106.5 158.1 88.7 165 69.9 172C51.3 179 31 186.5 9 194.5V162.7ZM86.1 135.4C103.5 129 120.3 122.6 136.5 116.2C152.9 110 168.6 103.5 183.6 96.7C168.6 89.7 152.9 83 136.5 76.6C120.3 70.4 103.5 64.2 86.1 58V135.4ZM158.1 248.826C160.3 252.226 162.6 257.326 165 264.126C167.4 271.126 168.6 279.126 168.6 288.126C168.6 299.326 166.6 309.226 162.6 317.826C158.6 326.626 153 334.026 145.8 340.026C138.6 346.026 130 350.526 120 353.526C110 356.726 99 358.326 87 358.326C74.4 358.326 63 356.426 52.8 352.626C42.8 349.026 34.3 343.826 27.3 337.026C20.3 330.226 14.9 322.026 11.1 312.426C7.3 302.826 5.4 292.026 5.4 280.026C5.4 267.026 6.3 255.526 8.1 245.526C9.9 235.526 11.7 227.326 13.5 220.926L237 220.926L241.8 248.826H158.1ZM33.3 248.826C32.5 251.626 31.7 255.526 30.9 260.526C30.3 265.726 30 272.126 30 279.726C30 294.726 34.9 306.726 44.7 315.726C54.7 324.726 68.8 329.226 87 329.226C95 329.226 102.5 328.426 109.5 326.826C116.5 325.226 122.5 322.626 127.5 319.026C132.7 315.426 136.7 310.726 139.5 304.926C142.5 299.326 144 292.526 144 284.526C144 276.926 142.7 269.926 140.1 263.526C137.5 257.126 134.8 252.226 132 248.826L33.3 248.826ZM87 535.286C74.6 535.286 63.4 533.486 53.4 529.886C43.4 526.286 34.8 521.186 27.6 514.586C20.4 508.186 14.8 500.486 10.8 491.486C7 482.486 5.1 472.686 5.1 462.086C5.1 451.486 7 441.686 10.8 432.686C14.8 423.686 20.4 415.886 27.6 409.286C34.8 402.886 43.4 397.886 53.4 394.286C63.4 390.686 74.6 388.886 87 388.886C99.2 388.886 110.3 390.686 120.3 394.286C130.5 397.886 139.2 402.886 146.4 409.286C153.6 415.886 159.1 423.686 162.9 432.686C166.9 441.686 168.9 451.486 168.9 462.086C168.9 472.686 166.9 482.486 162.9 491.486C159.1 500.486 153.6 508.186 146.4 514.586C139.2 521.186 130.5 526.286 120.3 529.886C110.3 533.486 99.2 535.286 87 535.286ZM87 506.186C104.6 506.186 118.5 502.186 128.7 494.186C139.1 486.386 144.3 475.686 144.3 462.086C144.3 448.486 139.1 437.686 128.7 429.686C118.5 421.886 104.6 417.986 87 417.986C69.4 417.986 55.4 421.886 45 429.686C34.8 437.686 29.7 448.486 29.7 462.086C29.7 475.686 34.8 486.386 45 494.186C55.4 502.186 69.4 506.186 87 506.186ZM13.5 698.739C11.9 692.339 10.2 683.839 8.4 673.239C6.6 662.839 5.7 650.739 5.7 636.939C5.7 624.939 7.4 614.839 10.8 606.639C14.4 598.439 19.4 591.839 25.8 586.839C32.2 581.839 39.7 578.239 48.3 576.039C57.1 573.839 66.8 572.739 77.4 572.739H165L165 600.639H83.4C64.4 600.639 50.8 603.639 42.6 609.639C34.4 615.639 30.3 625.739 30.3 639.939C30.3 642.939 30.4 646.039 30.6 649.239C30.8 652.439 31 655.439 31.2 658.239C31.6 661.039 31.9 663.539 32.1 665.739C32.5 668.139 32.9 669.839 33.3 670.839H165V698.739H13.5ZM165 772.905V832.005H141.6V772.905H69.6C61.8 772.905 55.3 773.505 50.1 774.705C45.1 775.905 41.1 777.705 38.1 780.105C35.3 782.505 33.3 785.505 32.1 789.105C30.9 792.705 30.3 796.905 30.3 801.705C30.3 810.105 31.2 816.805 33 821.805C35 827.005 36.4 830.605 37.2 832.605L14.1 838.005C12.7 835.205 11 830.305 9 823.305C6.8 816.305 5.7 808.305 5.7 799.305C5.7 788.705 7 779.905 9.6 772.905C12.4 766.105 16.5 760.605 21.9 756.405C27.3 752.205 33.9 749.205 41.7 747.405C49.7 745.805 58.9 745.005 69.3 745.005H208.5L213.3 772.905H165ZM4.5 1016.14C4.5 1002.54 6.6 990.741 10.8 980.741C15 970.741 20.7 962.541 27.9 956.141C35.3 949.741 44 944.941 54 941.741C64 938.741 74.8 937.241 86.4 937.241H216.9V966.341H89.7C68.9 966.341 53.8 970.941 44.4 980.141C35 989.341 30.3 1001.34 30.3 1016.14C30.3 1023.54 31.4 1030.24 33.6 1036.24C36 1042.44 39.6 1047.74 44.4 1052.14C49.2 1056.54 55.3 1059.94 62.7 1062.34C70.3 1064.74 79.3 1065.94 89.7 1065.94H216.9V1095.04H86.4C74.8 1095.04 64 1093.44 54 1090.24C44 1087.24 35.3 1082.44 27.9 1075.84C20.7 1069.44 15 1061.24 10.8 1051.24C6.6 1041.44 4.5 1029.74 4.5 1016.14ZM29.1 1179.78C29.1 1191.18 30.6 1199.58 33.6 1204.98C36.6 1210.58 41.4 1213.38 48 1213.38C54.8 1213.38 60.2 1210.68 64.2 1205.28C68.2 1199.88 72.7 1190.98 77.7 1178.58C80.1 1172.58 82.5 1166.78 84.9 1161.18C87.5 1155.78 90.5 1151.08 93.9 1147.08C97.3 1143.08 101.4 1139.88 106.2 1137.48C111 1135.08 116.9 1133.88 123.9 1133.88C137.7 1133.88 148.6 1138.98 156.6 1149.18C164.8 1159.38 168.9 1173.28 168.9 1190.88C168.9 1195.28 168.6 1199.68 168 1204.08C167.6 1208.48 167 1212.58 166.2 1216.38C165.6 1220.18 164.9 1223.48 164.1 1226.28C163.3 1229.28 162.6 1231.58 162 1233.18L138 1228.08C139.6 1225.08 141.2 1220.38 142.8 1213.98C144.6 1207.58 145.5 1199.88 145.5 1190.88C145.5 1183.08 143.9 1176.28 140.7 1170.48C137.7 1164.68 132.9 1161.78 126.3 1161.78C122.9 1161.78 119.9 1162.38 117.3 1163.58C114.7 1164.98 112.3 1166.98 110.1 1169.58C108.1 1172.38 106.2 1175.78 104.4 1179.78C102.6 1183.78 100.7 1188.58 98.7 1194.18C95.9 1201.58 93.1 1208.18 90.3 1213.98C87.7 1219.78 84.6 1224.68 81 1228.68C77.4 1232.88 73 1236.08 67.8 1238.28C62.8 1240.48 56.6 1241.58 49.2 1241.58C34.8 1241.58 23.9 1236.18 16.5 1225.38C9.1 1214.78 5.4 1199.58 5.4 1179.78C5.4 1165.98 6.6 1155.18 9 1147.38C11.2 1139.58 12.9 1134.28 14.1 1131.48L38.1 1136.58C36.9 1139.78 35.1 1144.88 32.7 1151.88C30.3 1158.88 29.1 1168.18 29.1 1179.78Z" fill="white"/>
</g>
<defs>
<filter id="filter0_d_710_288" x="0.5" y="0.399902" width="245.3" height="1249.18" filterUnits="userSpaceOnUse" color-interpolation-filters="sRGB">
<feFlood flood-opacity="0" result="BackgroundImageFix"/>
<feColorMatrix in="SourceAlpha" type="matrix" values="0 0 0 0 0 0 0 0 0 0 0 0 0 0 0 0 0 0 127 0" result="hardAlpha"/>
<feOffset dy="4"/>
<feGaussianBlur stdDeviation="2"/>
<feComposite in2="hardAlpha" operator="out"/>
<feColorMatrix type="matrix" values="0 0 0 0 0 0 0 0 0 0 0 0 0 0 0 0 0 0 0.25 0"/>
<feBlend mode="normal" in2="BackgroundImageFix" result="effect1_dropShadow_710_288"/>
<feBlend mode="normal" in="SourceGraphic" in2="effect1_dropShadow_710_288" result="shape"/>
</filter>
</defs>
</svg>
