<svg width="226" height="1458" viewBox="0 0 226 1458" fill="none" xmlns="http://www.w3.org/2000/svg">
<g filter="url(#filter0_d_719_288)">
<path d="M4.5 98.2C4.5 83.6 6.9 70.3 11.7 58.3C16.5 46.3 23.5 36 32.7 27.4C41.9 18.8 53.2 12.1 66.6 7.3C80.2 2.7 95.7 0.400001 113.1 0.400001C130.5 0.400001 145.9 3 159.3 8.2C172.9 13.6 184.3 20.8 193.5 29.8C202.7 38.8 209.7 49.3 214.5 61.3C219.3 73.3 221.7 86.1 221.7 99.7C221.7 108.3 221.1 116 219.9 122.8C218.7 129.8 217.3 135.8 215.7 140.8C214.1 146 212.5 150.2 210.9 153.4C209.3 156.6 208.1 158.8 207.3 160L183.3 151.6C184.5 149.8 185.8 147.2 187.2 143.8C188.6 140.4 190 136.5 191.4 132.1C192.8 127.9 193.9 123.2 194.7 118C195.7 113 196.2 107.9 196.2 102.7C196.2 91.7 194.3 81.8 190.5 73C186.7 64.2 181.2 56.7 174 50.5C166.8 44.3 158 39.5 147.6 36.1C137.4 32.9 125.9 31.3 113.1 31.3C100.7 31.3 89.4 32.7 79.2 35.5C69 38.5 60.2 42.9 52.8 48.7C45.6 54.5 40 61.7 36 70.3C32 79.1 30 89.3 30 100.9C30 114.3 31.4 125.4 34.2 134.2C37 143 39.5 149.6 41.7 154L17.7 161.5C16.7 160.1 15.4 157.6 13.8 154C12.4 150.4 11 145.9 9.6 140.5C8.2 135.1 7 128.8 6 121.6C5 114.4 4.5 106.6 4.5 98.2ZM87 326.341C74.6 326.341 63.4 324.541 53.4 320.941C43.4 317.341 34.8 312.241 27.6 305.641C20.4 299.241 14.8 291.541 10.8 282.541C7 273.541 5.1 263.741 5.1 253.141C5.1 242.541 7 232.741 10.8 223.741C14.8 214.741 20.4 206.941 27.6 200.341C34.8 193.941 43.4 188.941 53.4 185.341C63.4 181.741 74.6 179.941 87 179.941C99.2 179.941 110.3 181.741 120.3 185.341C130.5 188.941 139.2 193.941 146.4 200.341C153.6 206.941 159.1 214.741 162.9 223.741C166.9 232.741 168.9 242.541 168.9 253.141C168.9 263.741 166.9 273.541 162.9 282.541C159.1 291.541 153.6 299.241 146.4 305.641C139.2 312.241 130.5 317.341 120.3 320.941C110.3 324.541 99.2 326.341 87 326.341ZM87 297.241C104.6 297.241 118.5 293.241 128.7 285.241C139.1 277.441 144.3 266.741 144.3 253.141C144.3 239.541 139.1 228.741 128.7 220.741C118.5 212.941 104.6 209.041 87 209.041C69.4 209.041 55.4 212.941 45 220.741C34.8 228.741 29.7 239.541 29.7 253.141C29.7 266.741 34.8 277.441 45 285.241C55.4 293.241 69.4 297.241 87 297.241ZM160.5 365.594C162.1 371.994 163.8 380.494 165.6 391.094C167.4 401.694 168.3 413.894 168.3 427.694C168.3 440.094 166.5 450.394 162.9 458.594C159.5 466.794 154.6 473.294 148.2 478.094C142 483.094 134.5 486.594 125.7 488.594C116.9 490.594 107.2 491.594 96.6 491.594H9V463.694H90.6C100.2 463.694 108.4 462.994 115.2 461.594C122 460.394 127.5 458.294 131.7 455.294C135.9 452.294 138.9 448.294 140.7 443.294C142.7 438.294 143.7 432.094 143.7 424.694C143.7 421.694 143.6 418.594 143.4 415.394C143.2 412.194 142.9 409.094 142.5 406.094C142.3 403.294 142 400.694 141.6 398.294C141.2 396.094 140.9 394.494 140.7 393.494H9V365.594H160.5ZM165 563.959V623.059H141.6V563.959H69.6C61.8 563.959 55.3 564.559 50.1 565.759C45.1 566.959 41.1 568.759 38.1 571.159C35.3 573.559 33.3 576.559 32.1 580.159C30.9 583.759 30.3 587.959 30.3 592.759C30.3 601.159 31.2 607.859 33 612.859C35 618.059 36.4 621.659 37.2 623.659L14.1 629.059C12.7 626.259 11 621.359 9 614.359C6.8 607.359 5.7 599.359 5.7 590.359C5.7 579.759 7 570.959 9.6 563.959C12.4 557.159 16.5 551.659 21.9 547.459C27.3 543.259 33.9 540.259 41.7 538.459C49.7 536.859 58.9 536.059 69.3 536.059H208.5L213.3 563.959H165ZM29.1 711.363C29.1 717.963 29.2 723.763 29.4 728.763C29.8 733.963 30.4 738.263 31.2 741.663H77.7C78.7 739.663 79.5 736.363 80.1 731.763C80.9 727.363 81.3 721.963 81.3 715.563C81.3 711.363 81 706.863 80.4 702.063C79.8 697.463 78.5 693.163 76.5 689.163C74.7 685.363 72.1 682.163 68.7 679.563C65.5 676.963 61.2 675.663 55.8 675.663C45.8 675.663 38.8 678.863 34.8 685.263C31 691.663 29.1 700.363 29.1 711.363ZM168.9 708.963C168.9 720.163 167.4 729.563 164.4 737.163C161.6 744.963 157.5 751.163 152.1 755.763C146.9 760.563 140.6 763.963 133.2 765.963C126 767.963 118 768.963 109.2 768.963H11.7C11.3 766.563 10.7 763.163 9.9 758.763C9.3 754.563 8.7 749.763 8.1 744.363C7.5 738.963 7 733.063 6.6 726.663C6 720.463 5.7 714.263 5.7 708.063C5.7 699.263 6.6 691.163 8.4 683.763C10.2 676.363 13 669.963 16.8 664.563C20.8 659.163 26 654.963 32.4 651.963C38.8 648.963 46.5 647.463 55.5 647.463C64.1 647.463 71.5 649.163 77.7 652.563C83.9 656.163 88.9 660.963 92.7 666.963C96.5 672.963 99.3 679.963 101.1 687.963C102.9 695.963 103.8 704.363 103.8 713.163C103.8 715.963 103.6 718.863 103.2 721.863C103 724.863 102.6 727.663 102 730.263C101.6 733.063 101.2 735.463 100.8 737.463C100.4 739.463 100.1 740.863 99.9 741.663H107.7C112.3 741.663 116.8 741.163 121.2 740.163C125.8 739.163 129.8 737.363 133.2 734.763C136.8 732.163 139.6 728.563 141.6 723.963C143.8 719.563 144.9 713.763 144.9 706.563C144.9 697.363 144.2 689.263 142.8 682.263C141.6 675.463 140.3 670.363 138.9 666.963L162 663.663C163.6 667.263 165.1 673.263 166.5 681.663C168.1 690.063 168.9 699.163 168.9 708.963ZM5.4 883.101C5.4 870.501 7.4 859.401 11.4 849.801C15.4 840.401 21 832.401 28.2 825.801C35.4 819.401 43.9 814.601 53.7 811.401C63.7 808.201 74.7 806.601 86.7 806.601C98.7 806.601 109.7 808.301 119.7 811.701C129.7 815.301 138.3 820.301 145.5 826.701C152.9 833.101 158.6 840.901 162.6 850.101C166.8 859.501 168.9 869.901 168.9 881.301C168.9 888.301 168.3 895.301 167.1 902.301C165.9 909.301 164 916.001 161.4 922.401L137.7 916.101C139.7 911.901 141.3 907.001 142.5 901.401C143.7 896.001 144.3 890.201 144.3 884.001C144.3 868.401 139.4 856.401 129.6 848.001C119.8 839.801 105.5 835.701 86.7 835.701C78.3 835.701 70.6 836.601 63.6 838.401C56.6 840.401 50.6 843.401 45.6 847.401C40.6 851.601 36.7 856.901 33.9 863.301C31.3 869.701 30 877.501 30 886.701C30 894.101 30.7 900.801 32.1 906.801C33.5 912.801 35 917.501 36.6 920.901L13.2 924.801C12.2 923.201 11.2 920.901 10.2 917.901C9.4 914.901 8.7 911.501 8.1 907.701C7.3 903.901 6.7 899.801 6.3 895.401C5.7 891.201 5.4 887.101 5.4 883.101ZM165 980.854V1039.95H141.6V980.854H69.6C61.8 980.854 55.3 981.454 50.1 982.654C45.1 983.854 41.1 985.654 38.1 988.054C35.3 990.454 33.3 993.454 32.1 997.054C30.9 1000.65 30.3 1004.85 30.3 1009.65C30.3 1018.05 31.2 1024.75 33 1029.75C35 1034.95 36.4 1038.55 37.2 1040.55L14.1 1045.95C12.7 1043.15 11 1038.25 9 1031.25C6.8 1024.25 5.7 1016.25 5.7 1007.25C5.7 996.654 7 987.854 9.6 980.854C12.4 974.054 16.5 968.554 21.9 964.354C27.3 960.154 33.9 957.154 41.7 955.354C49.7 953.754 58.9 952.954 69.3 952.954H208.5L213.3 980.854H165ZM4.5 1224.09C4.5 1210.49 6.6 1198.69 10.8 1188.69C15 1178.69 20.7 1170.49 27.9 1164.09C35.3 1157.69 44 1152.89 54 1149.69C64 1146.69 74.8 1145.19 86.4 1145.19H216.9V1174.29H89.7C68.9 1174.29 53.8 1178.89 44.4 1188.09C35 1197.29 30.3 1209.29 30.3 1224.09C30.3 1231.49 31.4 1238.19 33.6 1244.19C36 1250.39 39.6 1255.69 44.4 1260.09C49.2 1264.49 55.3 1267.89 62.7 1270.29C70.3 1272.69 79.3 1273.89 89.7 1273.89H216.9V1302.99H86.4C74.8 1302.99 64 1301.39 54 1298.19C44 1295.19 35.3 1290.39 27.9 1283.79C20.7 1277.39 15 1269.19 10.8 1259.19C6.6 1249.39 4.5 1237.69 4.5 1224.09ZM29.1 1387.73C29.1 1399.13 30.6 1407.53 33.6 1412.93C36.6 1418.53 41.4 1421.33 48 1421.33C54.8 1421.33 60.2 1418.63 64.2 1413.23C68.2 1407.83 72.7 1398.93 77.7 1386.53C80.1 1380.53 82.5 1374.73 84.9 1369.13C87.5 1363.73 90.5 1359.03 93.9 1355.03C97.3 1351.03 101.4 1347.83 106.2 1345.43C111 1343.03 116.9 1341.83 123.9 1341.83C137.7 1341.83 148.6 1346.93 156.6 1357.13C164.8 1367.33 168.9 1381.23 168.9 1398.83C168.9 1403.23 168.6 1407.63 168 1412.03C167.6 1416.43 167 1420.53 166.2 1424.33C165.6 1428.13 164.9 1431.43 164.1 1434.23C163.3 1437.23 162.6 1439.53 162 1441.13L138 1436.03C139.6 1433.03 141.2 1428.33 142.8 1421.93C144.6 1415.53 145.5 1407.83 145.5 1398.83C145.5 1391.03 143.9 1384.23 140.7 1378.43C137.7 1372.63 132.9 1369.73 126.3 1369.73C122.9 1369.73 119.9 1370.33 117.3 1371.53C114.7 1372.93 112.3 1374.93 110.1 1377.53C108.1 1380.33 106.2 1383.73 104.4 1387.73C102.6 1391.73 100.7 1396.53 98.7 1402.13C95.9 1409.53 93.1 1416.13 90.3 1421.93C87.7 1427.73 84.6 1432.63 81 1436.63C77.4 1440.83 73 1444.03 67.8 1446.23C62.8 1448.43 56.6 1449.53 49.2 1449.53C34.8 1449.53 23.9 1444.13 16.5 1433.33C9.1 1422.73 5.4 1407.53 5.4 1387.73C5.4 1373.93 6.6 1363.13 9 1355.33C11.2 1347.53 12.9 1342.23 14.1 1339.43L38.1 1344.53C36.9 1347.73 35.1 1352.83 32.7 1359.83C30.3 1366.83 29.1 1376.13 29.1 1387.73Z" fill="white"/>
</g>
<defs>
<filter id="filter0_d_719_288" x="0.5" y="0.399902" width="225.2" height="1457.13" filterUnits="userSpaceOnUse" color-interpolation-filters="sRGB">
<feFlood flood-opacity="0" result="BackgroundImageFix"/>
<feColorMatrix in="SourceAlpha" type="matrix" values="0 0 0 0 0 0 0 0 0 0 0 0 0 0 0 0 0 0 127 0" result="hardAlpha"/>
<feOffset dy="4"/>
<feGaussianBlur stdDeviation="2"/>
<feComposite in2="hardAlpha" operator="out"/>
<feColorMatrix type="matrix" values="0 0 0 0 0 0 0 0 0 0 0 0 0 0 0 0 0 0 0.25 0"/>
<feBlend mode="normal" in2="BackgroundImageFix" result="effect1_dropShadow_719_288"/>
<feBlend mode="normal" in="SourceGraphic" in2="effect1_dropShadow_719_288" result="shape"/>
</filter>
</defs>
</svg>
