<svg width="60" height="60" viewBox="0 0 60 60" fill="none" xmlns="http://www.w3.org/2000/svg">
<g clip-path="url(#clip0_675_245)">
<path d="M34.295 26.32C34.295 28.3 33.625 30.8925 32.585 32.925C30.0625 37.875 24.9275 37.8425 24.9275 32.575C24.9275 30.61 25.6025 28.0775 26.645 26.125C29.1975 21.3125 34.295 22.065 34.295 26.32V26.32ZM60 30C60 46.5675 46.5675 60 30 60C13.4325 60 0 46.5675 0 30C0 13.4325 13.4325 0 30 0C46.5675 0 60 13.4325 60 30ZM47.5 27.015C47.5 18.9 40.9225 13.0125 31.86 13.0125C19.4425 13.0125 12.5 20.885 12.5 30.695C12.5 39.875 18.6675 46.9875 30.06 46.9875C36.36 46.9875 40.37 45.1725 42.865 43.7675L41.1475 41.29C38.5925 42.7725 35.52 44.13 30.5075 44.13C21.935 44.13 16.175 38.6325 16.175 30.4475C16.175 16.1625 32.1775 13.5525 39.21 17.77C45.77 21.875 45.52 31.715 40.665 35.4775C38.08 37.5425 35.1675 37.475 36.1125 33.5875C36.1125 33.5875 39.1425 22.365 39.4975 21.15H36.0875L35.41 23.53C34.715 21.5675 33.0525 20.2925 30.6325 20.2925C25.5875 20.2925 21.3275 25.7675 21.3275 32.25C21.3275 36.575 23.61 39.26 27.2775 39.26C30.485 39.26 32.1525 37.445 33.1875 35.8275C32.4375 43.0725 47.5 39.72 47.5 27.015V27.015Z" fill="#FD4D26"/>
</g>
<defs>
<clipPath id="clip0_675_245">
<rect width="60" height="60" fill="white"/>
</clipPath>
</defs>
</svg>
