<svg width="200" height="200" viewBox="0 0 200 200" fill="none" xmlns="http://www.w3.org/2000/svg">
<path fill-rule="evenodd" clip-rule="evenodd" d="M100 0C155.192 0 200 44.8083 200 100C200 155.192 155.192 200 100 200C44.8083 200 0 155.192 0 100C0 44.8083 44.8083 0 100 0ZM100 8.33333C150.592 8.33333 191.667 49.4083 191.667 100C191.667 150.592 150.592 191.667 100 191.667C49.4083 191.667 8.33333 150.592 8.33333 100C8.33333 49.4083 49.4083 8.33333 100 8.33333ZM100 94.1083L144.108 50L150 55.8917L105.892 100L150 144.108L144.108 150L100 105.892L55.8917 150L50 144.108L94.1083 100L50 55.8917L55.8917 50L100 94.1083Z" fill="#FD4D26"/>
</svg>
