<svg width="54" height="54" viewBox="0 0 54 54" fill="none" xmlns="http://www.w3.org/2000/svg">
<ellipse cx="27.3332" cy="26.6342" rx="26.6667" ry="26.6342" fill="#32BAEC"/>
<g clip-path="url(#clip0_675_248)">
<path d="M26.833 8.39453C17.1701 8.39453 9.33301 16.2302 9.33301 25.8945C9.33301 33.6266 14.3468 40.1862 21.3015 42.5006C22.1751 42.6624 22.458 42.1199 22.458 41.6591V38.4012C17.5901 39.4599 16.5765 36.3362 16.5765 36.3362C15.7803 34.3135 14.6326 33.7754 14.6326 33.7754C13.0445 32.6889 14.7536 32.7122 14.7536 32.7122C16.5109 32.8347 17.4355 34.5162 17.4355 34.5162C18.9959 37.1908 21.5291 36.4179 22.528 35.9702C22.6841 34.8399 23.1376 34.067 23.6393 33.631C19.7528 33.1862 15.6665 31.6856 15.6665 24.9816C15.6665 23.0697 16.3505 21.5093 17.469 20.2843C17.2882 19.8424 16.6888 18.0618 17.6397 15.6527C17.6397 15.6527 19.1097 15.1831 22.4536 17.4464C23.8493 17.0585 25.3455 16.8645 26.833 16.8572C28.3205 16.8645 29.8182 17.0585 31.2168 17.4464C34.5578 15.1831 36.0249 15.6527 36.0249 15.6527C36.9772 18.0633 36.3778 19.8439 36.197 20.2843C37.3199 21.5093 37.998 23.0712 37.998 24.9816C37.998 31.7031 33.9045 33.1833 30.0078 33.6164C30.6349 34.1589 31.208 35.2235 31.208 36.8568V41.6591C31.208 42.1243 31.488 42.6712 32.3761 42.4991C39.3251 40.1818 44.333 33.6237 44.333 25.8945C44.333 16.2302 36.4974 8.39453 26.833 8.39453Z" fill="#07082E"/>
</g>
<defs>
<clipPath id="clip0_675_248">
<rect width="35" height="35" fill="white" transform="translate(9.33301 8.39453)"/>
</clipPath>
</defs>
</svg>
