<svg width="110" height="111" viewBox="0 0 110 111" fill="none" xmlns="http://www.w3.org/2000/svg">
<circle cx="55" cy="55.1006" r="55" fill="#FD4D26"/>
<path d="M49.7245 47.9506C49.6337 51.9881 60.9513 51.9956 60.8126 47.9506V45.5581C60.4823 41.7406 50.0423 41.7181 49.7573 45.5556H49.7245V47.9506ZM55.3026 44.4981C57.2292 44.4981 58.7952 45.1381 58.7952 45.9231C58.7952 46.7081 57.2292 47.3481 55.3026 47.3481C53.376 47.3481 51.81 46.7081 51.81 45.9231C51.81 45.1381 53.376 44.4981 55.3026 44.4981ZM72.4126 41.8706V39.4781C72.0797 35.6606 61.6423 35.6381 61.3573 39.4756H61.322V41.8706C61.2337 45.9106 72.5513 45.9181 72.4126 41.8706ZM63.41 39.8456C63.41 39.0606 64.976 38.4206 66.9026 38.4206C68.8292 38.4206 70.3952 39.0606 70.3952 39.8456C70.3952 40.6306 68.8292 41.2706 66.9026 41.2706C64.976 41.2706 63.41 40.6306 63.41 39.8456V39.8456ZM84 40.4556V70.9181L56.2609 85.1006V54.7506L81.1353 41.7756L54.9924 27.9831L28.9403 41.6156L53.7391 54.6906V85.1006L26 70.9156V40.2956L26.0227 40.3081L26 40.2606L55 25.1006L84 40.4556V40.4556ZM38.1346 39.4756H38.0993V41.8706C38.0085 45.9081 49.3236 45.9156 49.1874 41.8706V39.4781C48.857 35.6606 38.417 35.6406 38.1346 39.4756V39.4756ZM47.17 39.8431C47.17 40.6281 45.604 41.2706 43.6774 41.2706C41.7483 41.2706 40.1848 40.6306 40.1848 39.8431C40.1848 39.0581 41.7483 38.4181 43.6774 38.4181C45.6015 38.4181 47.17 39.0581 47.17 39.8431ZM60.8151 36.1156V33.7231C60.4823 29.9031 50.0448 29.8831 49.7598 33.7206H49.7245V36.1156C49.6337 40.1531 60.9538 40.1606 60.8151 36.1156ZM55.3051 32.6631C57.2292 32.6631 58.7977 33.3031 58.7977 34.0881C58.7977 34.8731 57.2292 35.5156 55.3051 35.5156C53.376 35.5156 51.8125 34.8756 51.8125 34.0881C51.8125 33.3006 53.376 32.6631 55.3051 32.6631V32.6631Z" fill="black"/>
</svg>
