<svg width="307" height="65" viewBox="0 0 307 65" fill="none" xmlns="http://www.w3.org/2000/svg">
<circle cx="32.5" cy="32.5" r="32.5" fill="white"/>
<path d="M45.7821 51.0468C47.4065 51.9788 49.1731 54.4377 49.1731 54.4377L49.1731 52.8727C49.1731 52.8727 48.2688 47.1199 47.2503 45.8558C46.2755 44.6458 45.515 44.1351 44.217 43.2809C41.6871 41.6159 37.308 41.6016 35.6092 38.0549C33.8722 34.4285 35.2141 33.4771 35.2141 33.4771L30.0048 33.4771C30.0048 33.4771 31.0599 34.4305 29.3489 38.0549C27.8868 41.152 24.5637 41.8961 22.3061 43.2809C20.6972 44.2678 19.7754 44.8647 18.4903 46.2471C17.1893 47.6465 16.3066 52.9108 16.3066 52.9108L16.3066 53.6552C16.3066 53.6552 18.9937 51.6527 21.0018 51.0468C23.7325 50.2229 27.9545 51.1692 30.5265 49.9363C32.259 49.1058 32.4665 47.4477 32.4823 46.8413C32.5183 47.3837 32.7776 48.768 34.4315 49.6586C37.5707 51.349 42.6897 49.2724 45.7821 51.0468Z" fill="#01040F"/>
<path d="M40.9018 12.9771C40.8967 11.1043 42.1429 8.34492 42.1429 8.34492L40.7876 9.12746C40.7876 9.12746 36.2577 12.787 35.6722 14.3011C35.1117 15.7503 35.0497 16.6642 34.9589 18.2154C34.7819 21.2389 36.959 25.0384 34.7369 28.2831C32.4649 31.6005 30.97 30.9141 30.97 30.9141L33.5746 35.4255C33.5746 35.4255 33.8728 34.035 37.8671 33.7046C41.2803 33.4223 43.5862 35.9281 45.9144 37.1909C47.5735 38.0907 48.5513 38.5906 50.391 39.0124C52.2534 39.4393 57.2538 37.5716 57.2538 37.5716L57.8985 37.1994C57.8985 37.1994 54.8207 35.8736 53.2919 34.4374C51.213 32.4846 49.9216 28.3551 47.5678 26.7441C45.9824 25.6589 44.4427 26.3082 43.9096 26.5978C44.3613 26.2955 45.4306 25.3787 45.3749 23.501C45.2692 19.9373 40.9113 16.5424 40.9018 12.9771Z" fill="#01040F"/>
<path d="M11.1325 35.5657C9.51318 36.5065 6.50036 36.8069 6.50036 36.8069L7.85575 37.5895C7.85575 37.5895 13.29 39.6827 14.8939 39.4327C16.4292 39.1935 17.2518 38.7902 18.6405 38.0933C21.3474 36.7348 23.5493 32.9496 27.4703 33.2517C31.4793 33.5605 31.6323 35.1984 31.6323 35.1984L34.237 30.687C34.237 30.687 32.8838 31.1241 30.6005 27.8301C28.6493 25.0153 29.6665 21.7654 29.596 19.1178C29.5457 17.2311 29.4897 16.1343 28.9351 14.3302C28.3737 12.5038 24.256 9.10722 24.256 9.10722L23.6113 8.73502C23.6113 8.73502 24.002 12.0634 23.5227 14.1054C22.8709 16.8822 19.9403 20.0654 19.7221 22.9092C19.575 24.8249 20.9072 25.8337 21.4244 26.1505C20.9368 25.9105 19.6082 25.4428 18.01 26.4299C14.9765 28.3034 14.2154 33.7748 11.1325 35.5657Z" fill="#01040F"/>
<path d="M108.462 45C108.145 44.0707 107.816 43.1527 107.476 42.246C107.136 41.3393 106.807 40.41 106.49 39.458H96.562C96.2447 40.41 95.916 41.3507 95.576 42.28C95.2587 43.1867 94.9413 44.0933 94.624 45H90.17C91.054 42.484 91.8927 40.1607 92.686 38.03C93.4793 35.8993 94.25 33.882 94.998 31.978C95.7687 30.074 96.528 28.2607 97.276 26.538C98.024 24.8153 98.7947 23.1153 99.588 21.438H103.634C104.427 23.1153 105.198 24.8153 105.946 26.538C106.694 28.2607 107.442 30.074 108.19 31.978C108.961 33.882 109.743 35.8993 110.536 38.03C111.352 40.1607 112.202 42.484 113.086 45H108.462ZM101.526 25.994C101.005 27.1953 100.404 28.6573 99.724 30.38C99.0667 32.1027 98.3753 33.9727 97.65 35.99H105.402C104.677 33.9727 103.974 32.0913 103.294 30.346C102.614 28.6007 102.025 27.15 101.526 25.994ZM115.86 27.796C116.654 27.5693 117.685 27.354 118.954 27.15C120.224 26.946 121.629 26.844 123.17 26.844C124.621 26.844 125.834 27.048 126.808 27.456C127.783 27.8413 128.554 28.3967 129.12 29.122C129.71 29.8247 130.118 30.686 130.344 31.706C130.594 32.7033 130.718 33.8027 130.718 35.004V45H126.604V35.65C126.604 34.698 126.536 33.8933 126.4 33.236C126.287 32.556 126.083 32.012 125.788 31.604C125.516 31.1733 125.131 30.8673 124.632 30.686C124.156 30.482 123.567 30.38 122.864 30.38C122.343 30.38 121.799 30.414 121.232 30.482C120.666 30.55 120.246 30.6067 119.974 30.652V45H115.86V27.796ZM149.736 27.218C147.9 33.9727 145.769 40.0927 143.344 45.578C142.89 46.598 142.426 47.4707 141.95 48.196C141.474 48.9213 140.941 49.522 140.352 49.998C139.762 50.474 139.105 50.814 138.38 51.018C137.654 51.2447 136.816 51.358 135.864 51.358C135.229 51.358 134.594 51.29 133.96 51.154C133.348 51.018 132.883 50.8707 132.566 50.712L133.314 47.414C134.13 47.7313 134.934 47.89 135.728 47.89C136.793 47.89 137.62 47.6293 138.21 47.108C138.822 46.6093 139.354 45.8273 139.808 44.762C138.516 42.2687 137.269 39.5487 136.068 36.602C134.889 33.6553 133.835 30.5273 132.906 27.218H137.292C137.518 28.17 137.79 29.2013 138.108 30.312C138.448 31.4227 138.81 32.556 139.196 33.712C139.581 34.8453 139.989 35.9787 140.42 37.112C140.85 38.2453 141.281 39.2993 141.712 40.274C142.437 38.2567 143.117 36.1147 143.752 33.848C144.386 31.5587 144.964 29.3487 145.486 27.218H149.736ZM166.7 41.804C168.241 41.804 169.363 41.5433 170.066 41.022C170.769 40.5007 171.12 39.764 171.12 38.812C171.12 38.2453 170.995 37.758 170.746 37.35C170.519 36.942 170.179 36.5793 169.726 36.262C169.295 35.922 168.763 35.616 168.128 35.344C167.493 35.0493 166.768 34.766 165.952 34.494C165.136 34.1993 164.343 33.882 163.572 33.542C162.824 33.1793 162.155 32.7373 161.566 32.216C160.999 31.6947 160.535 31.0713 160.172 30.346C159.832 29.6207 159.662 28.748 159.662 27.728C159.662 25.5973 160.399 23.9313 161.872 22.73C163.345 21.506 165.351 20.894 167.89 20.894C169.363 20.894 170.667 21.064 171.8 21.404C172.956 21.7213 173.863 22.0727 174.52 22.458L173.194 25.926C172.423 25.4953 171.573 25.1667 170.644 24.94C169.737 24.7133 168.797 24.6 167.822 24.6C166.666 24.6 165.759 24.838 165.102 25.314C164.467 25.79 164.15 26.4587 164.15 27.32C164.15 27.8413 164.252 28.2947 164.456 28.68C164.683 29.0427 164.989 29.3713 165.374 29.666C165.782 29.9607 166.247 30.2327 166.768 30.482C167.312 30.7313 167.901 30.9693 168.536 31.196C169.647 31.604 170.633 32.0233 171.494 32.454C172.378 32.862 173.115 33.3607 173.704 33.95C174.316 34.5167 174.781 35.1967 175.098 35.99C175.415 36.7607 175.574 37.7013 175.574 38.812C175.574 40.9427 174.815 42.5973 173.296 43.776C171.8 44.932 169.601 45.51 166.7 45.51C165.725 45.51 164.83 45.442 164.014 45.306C163.221 45.1927 162.507 45.0453 161.872 44.864C161.26 44.6827 160.727 44.5013 160.274 44.32C159.821 44.116 159.458 43.9347 159.186 43.776L160.444 40.274C161.056 40.614 161.883 40.954 162.926 41.294C163.969 41.634 165.227 41.804 166.7 41.804ZM195.227 36.092C195.227 37.4973 195.023 38.778 194.615 39.934C194.207 41.09 193.629 42.076 192.881 42.892C192.133 43.708 191.227 44.3427 190.161 44.796C189.119 45.2493 187.963 45.476 186.693 45.476C185.424 45.476 184.268 45.2493 183.225 44.796C182.183 44.3427 181.287 43.708 180.539 42.892C179.791 42.076 179.202 41.09 178.771 39.934C178.363 38.778 178.159 37.4973 178.159 36.092C178.159 34.6867 178.363 33.4173 178.771 32.284C179.202 31.128 179.791 30.142 180.539 29.326C181.31 28.51 182.217 27.8867 183.259 27.456C184.302 27.0027 185.447 26.776 186.693 26.776C187.94 26.776 189.085 27.0027 190.127 27.456C191.193 27.8867 192.099 28.51 192.847 29.326C193.595 30.142 194.173 31.128 194.581 32.284C195.012 33.4173 195.227 34.6867 195.227 36.092ZM191.011 36.092C191.011 34.324 190.626 32.93 189.855 31.91C189.107 30.8673 188.053 30.346 186.693 30.346C185.333 30.346 184.268 30.8673 183.497 31.91C182.749 32.93 182.375 34.324 182.375 36.092C182.375 37.8827 182.749 39.2993 183.497 40.342C184.268 41.3847 185.333 41.906 186.693 41.906C188.053 41.906 189.107 41.3847 189.855 40.342C190.626 39.2993 191.011 37.8827 191.011 36.092ZM205.654 45.34C204.43 45.3173 203.41 45.1813 202.594 44.932C201.8 44.6827 201.166 44.3313 200.69 43.878C200.214 43.402 199.874 42.824 199.67 42.144C199.488 41.4413 199.398 40.648 199.398 39.764V19.296L203.512 18.616V38.982C203.512 39.4807 203.546 39.9 203.614 40.24C203.704 40.58 203.852 40.8747 204.056 41.124C204.26 41.3507 204.532 41.532 204.872 41.668C205.234 41.7813 205.688 41.872 206.232 41.94L205.654 45.34ZM224.145 44.456C223.352 44.66 222.321 44.864 221.051 45.068C219.782 45.2947 218.388 45.408 216.869 45.408C215.441 45.408 214.24 45.204 213.265 44.796C212.313 44.388 211.543 43.8213 210.953 43.096C210.387 42.3707 209.979 41.5093 209.729 40.512C209.48 39.492 209.355 38.3813 209.355 37.18V27.218H213.469V36.534C213.469 38.438 213.741 39.798 214.285 40.614C214.852 41.43 215.827 41.838 217.209 41.838C217.708 41.838 218.229 41.8153 218.773 41.77C219.34 41.7247 219.759 41.668 220.031 41.6V27.218H224.145V44.456ZM229.178 22.526L233.292 21.846V27.218H239.616V30.652H233.292V37.894C233.292 39.322 233.518 40.342 233.972 40.954C234.425 41.566 235.196 41.872 236.284 41.872C237.032 41.872 237.689 41.7927 238.256 41.634C238.845 41.4753 239.31 41.328 239.65 41.192L240.33 44.456C239.854 44.66 239.23 44.864 238.46 45.068C237.689 45.2947 236.782 45.408 235.74 45.408C234.47 45.408 233.405 45.238 232.544 44.898C231.705 44.558 231.036 44.0707 230.538 43.436C230.039 42.7787 229.688 41.9967 229.484 41.09C229.28 40.1607 229.178 39.1067 229.178 37.928V22.526ZM247.741 45H243.627V27.218H247.741V45ZM248.183 22.016C248.183 22.7867 247.933 23.3987 247.435 23.852C246.936 24.3053 246.347 24.532 245.667 24.532C244.964 24.532 244.363 24.3053 243.865 23.852C243.366 23.3987 243.117 22.7867 243.117 22.016C243.117 21.2227 243.366 20.5993 243.865 20.146C244.363 19.6927 244.964 19.466 245.667 19.466C246.347 19.466 246.936 19.6927 247.435 20.146C247.933 20.5993 248.183 21.2227 248.183 22.016ZM269.071 36.092C269.071 37.4973 268.867 38.778 268.459 39.934C268.051 41.09 267.473 42.076 266.725 42.892C265.977 43.708 265.07 44.3427 264.005 44.796C262.962 45.2493 261.806 45.476 260.537 45.476C259.268 45.476 258.112 45.2493 257.069 44.796C256.026 44.3427 255.131 43.708 254.383 42.892C253.635 42.076 253.046 41.09 252.615 39.934C252.207 38.778 252.003 37.4973 252.003 36.092C252.003 34.6867 252.207 33.4173 252.615 32.284C253.046 31.128 253.635 30.142 254.383 29.326C255.154 28.51 256.06 27.8867 257.103 27.456C258.146 27.0027 259.29 26.776 260.537 26.776C261.784 26.776 262.928 27.0027 263.971 27.456C265.036 27.8867 265.943 28.51 266.691 29.326C267.439 30.142 268.017 31.128 268.425 32.284C268.856 33.4173 269.071 34.6867 269.071 36.092ZM264.855 36.092C264.855 34.324 264.47 32.93 263.699 31.91C262.951 30.8673 261.897 30.346 260.537 30.346C259.177 30.346 258.112 30.8673 257.341 31.91C256.593 32.93 256.219 34.324 256.219 36.092C256.219 37.8827 256.593 39.2993 257.341 40.342C258.112 41.3847 259.177 41.906 260.537 41.906C261.897 41.906 262.951 41.3847 263.699 40.342C264.47 39.2993 264.855 37.8827 264.855 36.092ZM273.309 27.796C274.103 27.5693 275.134 27.354 276.403 27.15C277.673 26.946 279.078 26.844 280.619 26.844C282.07 26.844 283.283 27.048 284.257 27.456C285.232 27.8413 286.003 28.3967 286.569 29.122C287.159 29.8247 287.567 30.686 287.793 31.706C288.043 32.7033 288.167 33.8027 288.167 35.004V45H284.053V35.65C284.053 34.698 283.985 33.8933 283.849 33.236C283.736 32.556 283.532 32.012 283.237 31.604C282.965 31.1733 282.58 30.8673 282.081 30.686C281.605 30.482 281.016 30.38 280.313 30.38C279.792 30.38 279.248 30.414 278.681 30.482C278.115 30.55 277.695 30.6067 277.423 30.652V45H273.309V27.796ZM297.652 42.042C298.74 42.042 299.533 41.9173 300.032 41.668C300.531 41.396 300.78 40.9427 300.78 40.308C300.78 39.7187 300.508 39.2313 299.964 38.846C299.443 38.4607 298.57 38.0413 297.346 37.588C296.598 37.316 295.907 37.0327 295.272 36.738C294.66 36.4207 294.127 36.058 293.674 35.65C293.221 35.242 292.858 34.7547 292.586 34.188C292.337 33.5987 292.212 32.8847 292.212 32.046C292.212 30.414 292.813 29.1333 294.014 28.204C295.215 27.252 296.847 26.776 298.91 26.776C299.953 26.776 300.95 26.878 301.902 27.082C302.854 27.2633 303.568 27.4447 304.044 27.626L303.296 30.958C302.843 30.754 302.265 30.5727 301.562 30.414C300.859 30.2327 300.043 30.142 299.114 30.142C298.275 30.142 297.595 30.2893 297.074 30.584C296.553 30.856 296.292 31.2867 296.292 31.876C296.292 32.1707 296.337 32.4313 296.428 32.658C296.541 32.8847 296.723 33.1 296.972 33.304C297.221 33.4853 297.55 33.678 297.958 33.882C298.366 34.0633 298.865 34.256 299.454 34.46C300.429 34.8227 301.256 35.1853 301.936 35.548C302.616 35.888 303.171 36.2847 303.602 36.738C304.055 37.1687 304.384 37.6673 304.588 38.234C304.792 38.8007 304.894 39.4807 304.894 40.274C304.894 41.974 304.259 43.266 302.99 44.15C301.743 45.0113 299.953 45.442 297.618 45.442C296.054 45.442 294.796 45.306 293.844 45.034C292.892 44.7847 292.223 44.5807 291.838 44.422L292.552 40.988C293.164 41.2373 293.889 41.4753 294.728 41.702C295.589 41.9287 296.564 42.042 297.652 42.042Z" fill="white"/>
</svg>
