<svg width="124" height="43" viewBox="0 0 124 43" fill="none" xmlns="http://www.w3.org/2000/svg">
<rect width="39.8867" height="6.20459" rx="3.1023" transform="matrix(0.5 0.866025 0.866025 -0.5 25.3503 3.16504)" fill="#FD4D26"/>
<rect width="39.8867" height="6.20459" rx="3.1023" transform="matrix(-0.5 -0.866025 -0.866025 0.5 42.3184 34.5742)" fill="#FD4D26"/>
<rect y="34.543" width="39.8867" height="6.20459" rx="3.1023" transform="rotate(-60 0 34.543)" fill="#32BAEC" fill-opacity="0.7"/>
<rect x="8.42065" y="34.5742" width="39.8867" height="6.20459" rx="3.1023" transform="rotate(-60 8.42065 34.5742)" fill="#32BAEC" fill-opacity="0.7"/>
<rect x="42.1914" y="34.5742" width="11.5228" height="6.20459" rx="3.1023" transform="rotate(-60 42.1914 34.5742)" fill="#32BAEC" fill-opacity="0.7"/>
<circle cx="56.8001" cy="34.4002" r="3.2" fill="#32BAEC" fill-opacity="0.7"/>
<rect width="39.8867" height="6.20459" rx="3.1023" transform="matrix(0.5 0.866025 0.866025 -0.5 8.68652 3.22266)" fill="#FD4D26"/>
<rect x="22.7976" y="39.2979" width="45.1363" height="6.20459" rx="3.1023" transform="rotate(-60 22.7976 39.2979)" fill="#32BAEC" fill-opacity="0.7"/>
<path d="M68.784 37.128C67.952 37.128 67.2267 36.9947 66.608 36.728C65.9893 36.4613 65.5093 36.088 65.168 35.608C64.8373 35.128 64.672 34.5627 64.672 33.912V33.512C64.672 33.4587 64.688 33.416 64.72 33.384C64.7627 33.3413 64.8107 33.32 64.864 33.32H66.288C66.3413 33.32 66.384 33.3413 66.416 33.384C66.4587 33.416 66.48 33.4587 66.48 33.512V33.816C66.48 34.3067 66.6987 34.7173 67.136 35.048C67.5733 35.368 68.1707 35.528 68.928 35.528C69.5787 35.528 70.0693 35.3893 70.4 35.112C70.7307 34.8347 70.896 34.4773 70.896 34.04C70.896 33.7413 70.8053 33.4907 70.624 33.288C70.4427 33.0747 70.1813 32.8827 69.84 32.712C69.5093 32.5413 69.008 32.328 68.336 32.072C67.5787 31.7947 66.9653 31.5333 66.496 31.288C66.0267 31.0427 65.632 30.712 65.312 30.296C65.0027 29.8693 64.848 29.3413 64.848 28.712C64.848 27.7733 65.1893 27.032 65.872 26.488C66.5547 25.944 67.4667 25.672 68.608 25.672C69.408 25.672 70.112 25.8107 70.72 26.088C71.3387 26.3653 71.8187 26.7547 72.16 27.256C72.5013 27.7467 72.672 28.3173 72.672 28.968V29.24C72.672 29.2933 72.6507 29.3413 72.608 29.384C72.576 29.416 72.5333 29.432 72.48 29.432H71.04C70.9867 29.432 70.9387 29.416 70.896 29.384C70.864 29.3413 70.848 29.2933 70.848 29.24V29.064C70.848 28.5627 70.64 28.1413 70.224 27.8C69.8187 27.448 69.2533 27.272 68.528 27.272C67.9413 27.272 67.4827 27.3947 67.152 27.64C66.832 27.8853 66.672 28.232 66.672 28.68C66.672 29 66.7573 29.2613 66.928 29.464C67.0987 29.6667 67.3547 29.8533 67.696 30.024C68.0373 30.184 68.5653 30.392 69.28 30.648C70.0373 30.936 70.64 31.1973 71.088 31.432C71.5467 31.6667 71.936 31.9973 72.256 32.424C72.5867 32.84 72.752 33.3627 72.752 33.992C72.752 34.952 72.3947 35.7147 71.68 36.28C70.976 36.8453 70.0107 37.128 68.784 37.128ZM77.0371 37.128C76.1945 37.128 75.4691 36.9147 74.8611 36.488C74.2638 36.0613 73.8425 35.4693 73.5971 34.712C73.4158 34.136 73.3251 33.528 73.3251 32.888C73.3251 32.2053 73.4105 31.5973 73.5811 31.064C73.8265 30.3173 74.2531 29.736 74.8611 29.32C75.4691 28.904 76.1998 28.696 77.0531 28.696C77.8638 28.696 78.5625 28.904 79.1491 29.32C79.7465 29.736 80.1678 30.312 80.4131 31.048C80.6051 31.56 80.7011 32.168 80.7011 32.872C80.7011 33.544 80.6105 34.152 80.4291 34.696C80.1838 35.4533 79.7625 36.0507 79.1651 36.488C78.5678 36.9147 77.8585 37.128 77.0371 37.128ZM77.0371 35.528C77.4318 35.528 77.7678 35.416 78.0451 35.192C78.3331 34.968 78.5411 34.6533 78.6691 34.248C78.7758 33.896 78.8291 33.448 78.8291 32.904C78.8291 32.328 78.7758 31.88 78.6691 31.56C78.5518 31.1547 78.3491 30.8453 78.0611 30.632C77.7731 30.408 77.4211 30.296 77.0051 30.296C76.6105 30.296 76.2691 30.408 75.9811 30.632C75.6931 30.8453 75.4851 31.1547 75.3571 31.56C75.2505 31.9333 75.1971 32.3813 75.1971 32.904C75.1971 33.4267 75.2505 33.8747 75.3571 34.248C75.4745 34.6533 75.6771 34.968 75.9651 35.192C76.2638 35.416 76.6211 35.528 77.0371 35.528ZM81.7677 37C81.7144 37 81.6664 36.984 81.6237 36.952C81.5917 36.9093 81.5757 36.8613 81.5757 36.808V25.992C81.5757 25.9387 81.5917 25.896 81.6237 25.864C81.6664 25.8213 81.7144 25.8 81.7677 25.8H83.2397C83.2931 25.8 83.3357 25.8213 83.3677 25.864C83.4104 25.896 83.4317 25.9387 83.4317 25.992V36.808C83.4317 36.8613 83.4104 36.9093 83.3677 36.952C83.3357 36.984 83.2931 37 83.2397 37H81.7677ZM89.3559 29.016C89.3559 28.9627 89.3719 28.92 89.4039 28.888C89.4465 28.8453 89.4945 28.824 89.5479 28.824H91.0039C91.0572 28.824 91.0999 28.8453 91.1319 28.888C91.1745 28.92 91.1959 28.9627 91.1959 29.016V36.808C91.1959 36.8613 91.1745 36.9093 91.1319 36.952C91.0999 36.984 91.0572 37 91.0039 37H89.5479C89.4945 37 89.4465 36.984 89.4039 36.952C89.3719 36.9093 89.3559 36.8613 89.3559 36.808V36.296C89.3559 36.264 89.3452 36.2427 89.3239 36.232C89.3025 36.2213 89.2812 36.232 89.2599 36.264C88.8225 36.8293 88.1665 37.112 87.2919 37.112C86.4812 37.112 85.7985 36.8773 85.2439 36.408C84.6999 35.9387 84.4279 35.272 84.4279 34.408V29.016C84.4279 28.9627 84.4439 28.92 84.4759 28.888C84.5185 28.8453 84.5665 28.824 84.6199 28.824H86.0919C86.1452 28.824 86.1879 28.8453 86.2199 28.888C86.2625 28.92 86.2839 28.9627 86.2839 29.016V33.88C86.2839 34.3813 86.4119 34.7813 86.6679 35.08C86.9345 35.3787 87.3025 35.528 87.7719 35.528C88.2519 35.528 88.6359 35.3787 88.9239 35.08C89.2119 34.7813 89.3559 34.3813 89.3559 33.88V29.016ZM96.6361 30.136C96.6361 30.1893 96.6148 30.2373 96.5721 30.28C96.5401 30.312 96.4975 30.328 96.4441 30.328H94.8121C94.7588 30.328 94.7321 30.3547 94.7321 30.408V34.264C94.7321 34.6693 94.8175 34.9627 94.9881 35.144C95.1695 35.3253 95.4521 35.416 95.8361 35.416H96.3161C96.3695 35.416 96.4121 35.4373 96.4441 35.48C96.4868 35.512 96.5081 35.5547 96.5081 35.608V36.808C96.5081 36.9253 96.4441 36.9947 96.3161 37.016L95.4841 37.032C94.6415 37.032 94.0121 36.888 93.5961 36.6C93.1801 36.312 92.9668 35.768 92.9561 34.968V30.408C92.9561 30.3547 92.9295 30.328 92.8761 30.328H91.9641C91.9108 30.328 91.8628 30.312 91.8201 30.28C91.7881 30.2373 91.7721 30.1893 91.7721 30.136V29.016C91.7721 28.9627 91.7881 28.92 91.8201 28.888C91.8628 28.8453 91.9108 28.824 91.9641 28.824H92.8761C92.9295 28.824 92.9561 28.7973 92.9561 28.744V26.872C92.9561 26.8187 92.9721 26.776 93.0041 26.744C93.0468 26.7013 93.0948 26.68 93.1481 26.68H94.5401C94.5935 26.68 94.6361 26.7013 94.6681 26.744C94.7108 26.776 94.7321 26.8187 94.7321 26.872V28.744C94.7321 28.7973 94.7588 28.824 94.8121 28.824H96.4441C96.4975 28.824 96.5401 28.8453 96.5721 28.888C96.6148 28.92 96.6361 28.9627 96.6361 29.016V30.136ZM98.4605 27.704C98.1298 27.704 97.8578 27.5973 97.6445 27.384C97.4312 27.1707 97.3245 26.8987 97.3245 26.568C97.3245 26.2373 97.4312 25.9653 97.6445 25.752C97.8578 25.5387 98.1298 25.432 98.4605 25.432C98.7912 25.432 99.0632 25.5387 99.2765 25.752C99.4898 25.9653 99.5965 26.2373 99.5965 26.568C99.5965 26.8987 99.4898 27.1707 99.2765 27.384C99.0632 27.5973 98.7912 27.704 98.4605 27.704ZM97.6925 37C97.6392 37 97.5912 36.984 97.5485 36.952C97.5165 36.9093 97.5005 36.8613 97.5005 36.808V29C97.5005 28.9467 97.5165 28.904 97.5485 28.872C97.5912 28.8293 97.6392 28.808 97.6925 28.808H99.1645C99.2178 28.808 99.2605 28.8293 99.2925 28.872C99.3352 28.904 99.3565 28.9467 99.3565 29V36.808C99.3565 36.8613 99.3352 36.9093 99.2925 36.952C99.2605 36.984 99.2178 37 99.1645 37H97.6925ZM104.075 37.128C103.232 37.128 102.507 36.9147 101.899 36.488C101.301 36.0613 100.88 35.4693 100.635 34.712C100.453 34.136 100.363 33.528 100.363 32.888C100.363 32.2053 100.448 31.5973 100.619 31.064C100.864 30.3173 101.291 29.736 101.899 29.32C102.507 28.904 103.237 28.696 104.091 28.696C104.901 28.696 105.6 28.904 106.187 29.32C106.784 29.736 107.205 30.312 107.451 31.048C107.643 31.56 107.739 32.168 107.739 32.872C107.739 33.544 107.648 34.152 107.467 34.696C107.221 35.4533 106.8 36.0507 106.203 36.488C105.605 36.9147 104.896 37.128 104.075 37.128ZM104.075 35.528C104.469 35.528 104.805 35.416 105.083 35.192C105.371 34.968 105.579 34.6533 105.707 34.248C105.813 33.896 105.867 33.448 105.867 32.904C105.867 32.328 105.813 31.88 105.707 31.56C105.589 31.1547 105.387 30.8453 105.099 30.632C104.811 30.408 104.459 30.296 104.043 30.296C103.648 30.296 103.307 30.408 103.019 30.632C102.731 30.8453 102.523 31.1547 102.395 31.56C102.288 31.9333 102.235 32.3813 102.235 32.904C102.235 33.4267 102.288 33.8747 102.395 34.248C102.512 34.6533 102.715 34.968 103.003 35.192C103.301 35.416 103.659 35.528 104.075 35.528ZM112.533 28.696C113.397 28.696 114.085 28.952 114.597 29.464C115.12 29.976 115.381 30.6747 115.381 31.56V36.808C115.381 36.8613 115.36 36.9093 115.317 36.952C115.285 36.984 115.243 37 115.189 37H113.717C113.664 37 113.616 36.984 113.573 36.952C113.541 36.9093 113.525 36.8613 113.525 36.808V31.944C113.525 31.4533 113.387 31.0587 113.109 30.76C112.832 30.4507 112.464 30.296 112.005 30.296C111.547 30.296 111.173 30.4453 110.885 30.744C110.608 31.0427 110.469 31.4373 110.469 31.928V36.808C110.469 36.8613 110.448 36.9093 110.405 36.952C110.373 36.984 110.331 37 110.277 37H108.805C108.752 37 108.704 36.984 108.661 36.952C108.629 36.9093 108.613 36.8613 108.613 36.808V29.016C108.613 28.9627 108.629 28.92 108.661 28.888C108.704 28.8453 108.752 28.824 108.805 28.824H110.277C110.331 28.824 110.373 28.8453 110.405 28.888C110.448 28.92 110.469 28.9627 110.469 29.016V29.528C110.469 29.56 110.48 29.5813 110.501 29.592C110.523 29.6027 110.539 29.592 110.549 29.56C110.987 28.984 111.648 28.696 112.533 28.696ZM119.476 37.096C118.804 37.096 118.212 37 117.7 36.808C117.199 36.6053 116.81 36.3333 116.532 35.992C116.255 35.64 116.116 35.2507 116.116 34.824V34.68C116.116 34.6267 116.132 34.584 116.164 34.552C116.207 34.5093 116.255 34.488 116.308 34.488H117.716C117.77 34.488 117.812 34.5093 117.844 34.552C117.887 34.584 117.908 34.6267 117.908 34.68V34.712C117.908 34.9787 118.052 35.2133 118.34 35.416C118.639 35.608 119.012 35.704 119.46 35.704C119.887 35.704 120.234 35.6187 120.5 35.448C120.767 35.2667 120.9 35.0427 120.9 34.776C120.9 34.5307 120.788 34.3493 120.564 34.232C120.351 34.104 119.999 33.9707 119.508 33.832L118.9 33.64C118.356 33.48 117.898 33.3093 117.524 33.128C117.151 32.9467 116.836 32.7013 116.58 32.392C116.324 32.072 116.196 31.6667 116.196 31.176C116.196 30.4293 116.49 29.8373 117.076 29.4C117.663 28.952 118.436 28.728 119.396 28.728C120.047 28.728 120.618 28.8347 121.108 29.048C121.599 29.2507 121.978 29.5387 122.244 29.912C122.511 30.2747 122.644 30.6907 122.644 31.16C122.644 31.2133 122.623 31.2613 122.58 31.304C122.548 31.336 122.506 31.352 122.452 31.352H121.092C121.039 31.352 120.991 31.336 120.948 31.304C120.916 31.2613 120.9 31.2133 120.9 31.16C120.9 30.8827 120.762 30.6533 120.484 30.472C120.218 30.28 119.85 30.184 119.38 30.184C118.964 30.184 118.623 30.264 118.356 30.424C118.1 30.5733 117.972 30.7867 117.972 31.064C117.972 31.32 118.095 31.5173 118.34 31.656C118.596 31.784 119.018 31.928 119.604 32.088L119.956 32.184C120.522 32.3547 120.996 32.5307 121.38 32.712C121.764 32.8827 122.09 33.128 122.356 33.448C122.623 33.7573 122.756 34.1627 122.756 34.664C122.756 35.4213 122.458 36.0187 121.86 36.456C121.263 36.8827 120.468 37.096 119.476 37.096Z" fill="white"/>
</svg>
