<svg width="233" height="1076" viewBox="0 0 233 1076" fill="none" xmlns="http://www.w3.org/2000/svg">
<g filter="url(#filter0_d_691_257)">
<path d="M28.1 48.3C28.1 59.7 29.6 68.1 32.6 73.5C35.6 79.1 40.4 81.9 47 81.9C53.8 81.9 59.2 79.2 63.2 73.8C67.2 68.4 71.7 59.5 76.7 47.1C79.1 41.1 81.5 35.3 83.9 29.7C86.5 24.3 89.5 19.6 92.9 15.6C96.3 11.6 100.4 8.4 105.2 6C110 3.6 115.9 2.4 122.9 2.4C136.7 2.4 147.6 7.5 155.6 17.7C163.8 27.9 167.9 41.8 167.9 59.4C167.9 63.8 167.6 68.2 167 72.6C166.6 77 166 81.1 165.2 84.9C164.6 88.7 163.9 92 163.1 94.8C162.3 97.8 161.6 100.1 161 101.7L137 96.6C138.6 93.6 140.2 88.9 141.8 82.5C143.6 76.1 144.5 68.4 144.5 59.4C144.5 51.6 142.9 44.8 139.7 39C136.7 33.2 131.9 30.3 125.3 30.3C121.9 30.3 118.9 30.9 116.3 32.1C113.7 33.5 111.3 35.5 109.1 38.1C107.1 40.9 105.2 44.3 103.4 48.3C101.6 52.3 99.7 57.1 97.7 62.7C94.9 70.1 92.1 76.7 89.3 82.5C86.7 88.3 83.6 93.2 80 97.2C76.4 101.4 72 104.6 66.8 106.8C61.8 109 55.6 110.1 48.2 110.1C33.8 110.1 22.9 104.7 15.5 93.9C8.1 83.3 4.4 68.1 4.4 48.3C4.4 34.5 5.6 23.7 8 15.9C10.2 8.1 11.9 2.8 13.1 8.49366e-07L37.1 5.1C35.9 8.3 34.1 13.4 31.7 20.4C29.3 27.4 28.1 36.7 28.1 48.3ZM85.7 137.187C99.5 137.187 111.5 139.187 121.7 143.187C132.1 147.187 140.7 152.487 147.5 159.087C154.3 165.687 159.4 173.287 162.8 181.887C166.2 190.487 167.9 199.287 167.9 208.287C167.9 229.287 161.3 245.387 148.1 256.587C135.1 267.787 115.2 273.387 88.4 273.387C87.2 273.387 85.6 273.387 83.6 273.387C81.8 273.387 80.1 273.287 78.5 273.087L78.5 166.287C62.3 167.487 50 172.187 41.6 180.387C33.2 188.587 29 201.387 29 218.787C29 228.587 29.8 236.787 31.4 243.387C33.2 250.187 34.9 255.287 36.5 258.687L13.1 262.587C11.3 259.187 9.4 253.187 7.4 244.587C5.4 236.187 4.4 226.587 4.4 215.787C4.4 202.187 6.4 190.387 10.4 180.387C14.6 170.587 20.3 162.487 27.5 156.087C34.7 149.687 43.2 144.887 53 141.687C63 138.687 73.9 137.187 85.7 137.187ZM101 244.287C113.6 244.487 123.9 241.287 131.9 234.687C140.1 228.287 144.2 219.387 144.2 207.987C144.2 201.587 142.9 195.887 140.3 190.887C137.9 186.087 134.7 181.987 130.7 178.587C126.7 175.187 122.1 172.487 116.9 170.487C111.7 168.687 106.4 167.487 101 166.887L101 244.287ZM167.3 371.065C167.3 373.465 167.1 376.165 166.7 379.165C166.5 382.365 166.1 385.465 165.5 388.465C165.1 391.465 164.6 394.165 164 396.565C163.6 399.165 163.2 401.065 162.8 402.265L138.5 397.465C139.3 395.265 140.2 391.565 141.2 386.365C142.4 381.365 143 374.865 143 366.865C143 361.665 142.4 356.465 141.2 351.265C140.2 346.265 139.5 342.965 139.1 341.365H8V313.465H157.4C159.8 320.065 162 328.265 164 338.065C166.2 347.865 167.3 358.865 167.3 371.065ZM164 557.433C134.8 549.633 106.8 540.433 80 529.833C53.2 519.433 29.2 509.333 8 499.533V474.333C29.2 464.533 53.2 454.333 80 443.733C106.8 433.333 134.8 424.233 164 416.433V446.433C154.2 448.833 143.7 451.633 132.5 454.833C121.5 458.233 110.5 461.733 99.5 465.333C88.7 469.133 78.2 472.933 68 476.733C57.8 480.533 48.7 484.133 40.7 487.533C48.7 490.933 57.8 494.533 68 498.333C78.2 502.133 88.7 505.833 99.5 509.433C110.5 513.233 121.5 516.733 132.5 519.933C143.7 523.333 154.2 526.233 164 528.633V557.433ZM8 614.119V586.219H164V614.119H8ZM192.2 600.019C192.2 595.019 193.8 590.719 197 587.119C200.4 583.719 204.9 582.019 210.5 582.019C216.1 582.019 220.5 583.719 223.7 587.119C227.1 590.719 228.8 595.019 228.8 600.019C228.8 605.019 227.1 609.219 223.7 612.619C220.5 616.219 216.1 618.019 210.5 618.019C204.9 618.019 200.4 616.219 197 612.619C193.8 609.219 192.2 605.019 192.2 600.019ZM4.4 729.898C4.4 717.298 6.4 706.198 10.4 696.598C14.4 687.198 20 679.198 27.2 672.598C34.4 666.198 42.9 661.398 52.7 658.198C62.7 654.998 73.7 653.398 85.7 653.398C97.7 653.398 108.7 655.098 118.7 658.498C128.7 662.098 137.3 667.098 144.5 673.498C151.9 679.898 157.6 687.698 161.6 696.898C165.8 706.298 167.9 716.698 167.9 728.098C167.9 735.098 167.3 742.098 166.1 749.098C164.9 756.098 163 762.798 160.4 769.198L136.7 762.898C138.7 758.698 140.3 753.798 141.5 748.198C142.7 742.798 143.3 736.998 143.3 730.798C143.3 715.198 138.4 703.198 128.6 694.798C118.8 686.598 104.5 682.498 85.7 682.498C77.3 682.498 69.6 683.398 62.6 685.198C55.6 687.198 49.6 690.198 44.6 694.198C39.6 698.398 35.7 703.698 32.9 710.098C30.3 716.498 29 724.298 29 733.498C29 740.898 29.7 747.598 31.1 753.598C32.5 759.598 34 764.298 35.6 767.698L12.2 771.598C11.2 769.998 10.2 767.698 9.2 764.698C8.4 761.698 7.7 758.298 7.1 754.498C6.3 750.698 5.7 746.598 5.3 742.198C4.7 737.998 4.4 733.898 4.4 729.898ZM85.7 792.851C99.5 792.851 111.5 794.851 121.7 798.851C132.1 802.851 140.7 808.151 147.5 814.751C154.3 821.351 159.4 828.951 162.8 837.551C166.2 846.151 167.9 854.951 167.9 863.951C167.9 884.951 161.3 901.051 148.1 912.251C135.1 923.451 115.2 929.051 88.4 929.051C87.2 929.051 85.6 929.051 83.6 929.051C81.8 929.051 80.1 928.951 78.5 928.751V821.951C62.3 823.151 50 827.851 41.6 836.051C33.2 844.251 29 857.051 29 874.451C29 884.251 29.8 892.451 31.4 899.051C33.2 905.851 34.9 910.951 36.5 914.351L13.1 918.251C11.3 914.851 9.4 908.851 7.4 900.251C5.4 891.851 4.4 882.251 4.4 871.451C4.4 857.851 6.4 846.051 10.4 836.051C14.6 826.251 20.3 818.151 27.5 811.751C34.7 805.351 43.2 800.551 53 797.351C63 794.351 73.9 792.851 85.7 792.851ZM101 899.951C113.6 900.151 123.9 896.951 131.9 890.351C140.1 883.951 144.2 875.051 144.2 863.651C144.2 857.251 142.9 851.551 140.3 846.551C137.9 841.751 134.7 837.651 130.7 834.251C126.7 830.851 122.1 828.151 116.9 826.151C111.7 824.351 106.4 823.151 101 822.551V899.951ZM28.1 1005.43C28.1 1016.83 29.6 1025.23 32.6 1030.63C35.6 1036.23 40.4 1039.03 47 1039.03C53.8 1039.03 59.2 1036.33 63.2 1030.93C67.2 1025.53 71.7 1016.63 76.7 1004.23C79.1 998.229 81.5 992.429 83.9 986.829C86.5 981.429 89.5 976.729 92.9 972.729C96.3 968.729 100.4 965.529 105.2 963.129C110 960.729 115.9 959.529 122.9 959.529C136.7 959.529 147.6 964.629 155.6 974.829C163.8 985.029 167.9 998.929 167.9 1016.53C167.9 1020.93 167.6 1025.33 167 1029.73C166.6 1034.13 166 1038.23 165.2 1042.03C164.6 1045.83 163.9 1049.13 163.1 1051.93C162.3 1054.93 161.6 1057.23 161 1058.83L137 1053.73C138.6 1050.73 140.2 1046.03 141.8 1039.63C143.6 1033.23 144.5 1025.53 144.5 1016.53C144.5 1008.73 142.9 1001.93 139.7 996.129C136.7 990.329 131.9 987.429 125.3 987.429C121.9 987.429 118.9 988.029 116.3 989.229C113.7 990.629 111.3 992.629 109.1 995.229C107.1 998.029 105.2 1001.43 103.4 1005.43C101.6 1009.43 99.7 1014.23 97.7 1019.83C94.9 1027.23 92.1 1033.83 89.3 1039.63C86.7 1045.43 83.6 1050.33 80 1054.33C76.4 1058.53 72 1061.73 66.8 1063.93C61.8 1066.13 55.6 1067.23 48.2 1067.23C33.8 1067.23 22.9 1061.83 15.5 1051.03C8.1 1040.43 4.4 1025.23 4.4 1005.43C4.4 991.629 5.6 980.829 8 973.029C10.2 965.229 11.9 959.929 13.1 957.129L37.1 962.229C35.9 965.429 34.1 970.529 31.7 977.529C29.3 984.529 28.1 993.829 28.1 1005.43Z" fill="white"/>
</g>
<defs>
<filter id="filter0_d_691_257" x="0.399902" y="0" width="232.4" height="1075.23" filterUnits="userSpaceOnUse" color-interpolation-filters="sRGB">
<feFlood flood-opacity="0" result="BackgroundImageFix"/>
<feColorMatrix in="SourceAlpha" type="matrix" values="0 0 0 0 0 0 0 0 0 0 0 0 0 0 0 0 0 0 127 0" result="hardAlpha"/>
<feOffset dy="4"/>
<feGaussianBlur stdDeviation="2"/>
<feComposite in2="hardAlpha" operator="out"/>
<feColorMatrix type="matrix" values="0 0 0 0 0 0 0 0 0 0 0 0 0 0 0 0 0 0 0.25 0"/>
<feBlend mode="normal" in2="BackgroundImageFix" result="effect1_dropShadow_691_257"/>
<feBlend mode="normal" in="SourceGraphic" in2="effect1_dropShadow_691_257" result="shape"/>
</filter>
</defs>
</svg>
