<svg width="200" height="200" viewBox="0 0 200 200" fill="none" xmlns="http://www.w3.org/2000/svg">
<path fill-rule="evenodd" clip-rule="evenodd" d="M100 0C155.192 0 200 44.8083 200 100C200 155.192 155.192 200 100 200C44.8083 200 0 155.192 0 100C0 44.8083 44.8083 0 100 0ZM100 8.33333C150.592 8.33333 191.667 49.4083 191.667 100C191.667 150.592 150.592 191.667 100 191.667C49.4083 191.667 8.33333 150.592 8.33333 100C8.33333 49.4083 49.4083 8.33333 100 8.33333ZM158.333 70.475L83.2917 150.183L41.6667 101.308L48.0083 95.9L83.6 137.7L152.267 64.7667L158.333 70.475Z" fill="#2ED1C8"/>
</svg>
