<svg width="110" height="110" viewBox="0 0 110 110" fill="none" xmlns="http://www.w3.org/2000/svg">
<circle cx="55" cy="55" r="55" fill="#32BAEC"/>
<path d="M59.9175 79.7325C58.16 79.9075 56.475 80 55.02 80C46.49 80 35 77.495 35 73.465V68.365C40.2925 71.72 47.925 72.815 55.02 72.815C55.8675 72.815 56.7225 72.7975 57.575 72.7625C57.425 71.1525 57.485 69.5625 57.8975 67.715C56.8775 67.78 55.905 67.815 55.02 67.815C46.49 67.815 35 65.3125 35 61.2825V55.3725C40.29 58.725 47.925 59.8225 55.02 59.8225C57.5725 59.8225 60.19 59.6725 62.7425 59.3325C67.5175 54.9175 74.25 53.85 80 56.255V35.905C80 27.5 65.0875 25 55.02 25C44.4575 25 30 27.5025 30 35.9025V74.095C30 82.5 45.5225 85 55.02 85C57.7225 85 60.9175 84.785 64.1075 84.2975C62.435 83.06 61.01 81.51 59.9175 79.7325V79.7325ZM55.02 30C64.115 30 75 32.2725 75 35.9025C75 39.855 62.24 41.805 55.02 41.805C46.49 41.8075 35 39.5425 35 35.9025C35 31.9425 47.03 30 55.02 30V30ZM35 42.3575C40.2925 45.7125 47.925 46.8075 55.02 46.8075C62.0925 46.8075 69.71 45.7125 75 42.3575V48.2875C75 52.67 62.1725 54.8225 55.02 54.8225C46.455 54.82 35 52.305 35 48.285V42.3575V42.3575ZM73.75 60C67.5425 60 62.5 65.0375 62.5 71.25C62.5 77.4625 67.5425 82.5 73.75 82.5C79.9575 82.5 85 77.4625 85 71.25C85 65.0375 79.9575 60 73.75 60ZM80 72.5H75V77.5H72.5V72.5H67.5V70H72.5V65H75V70H80V72.5Z" fill="#090B31"/>
</svg>
