<svg width="54" height="54" viewBox="0 0 54 54" fill="none" xmlns="http://www.w3.org/2000/svg">
<ellipse cx="26.9997" cy="26.6342" rx="26.6667" ry="26.6342" fill="#32BAEC"/>
<g clip-path="url(#clip0_675_252)">
<path d="M46.333 16.0401C45.0453 16.6118 43.6613 16.9968 42.2088 17.1704C43.692 16.2822 44.8309 14.8749 45.3661 13.1979C43.9793 14.0204 42.4422 14.6183 40.8059 14.9406C39.4978 13.5449 37.6297 12.6729 35.5647 12.6729C30.9286 12.6729 27.522 16.9983 28.5691 21.4885C22.603 21.1895 17.3122 18.3312 13.7699 13.9868C11.8886 17.2141 12.7943 21.436 15.9909 23.5739C14.8155 23.536 13.7072 23.2137 12.7403 22.6756C12.6615 26.002 15.0459 29.1141 18.4993 29.8068C17.4886 30.081 16.3818 30.1451 15.2559 29.9293C16.1688 32.7818 18.8201 34.857 21.9643 34.9154C18.9455 37.2822 15.1422 38.3395 11.333 37.8904C14.5107 39.9276 18.2863 41.1162 22.3405 41.1162C35.6726 41.1162 43.2049 29.8564 42.7499 19.7574C44.1528 18.7439 45.3705 17.4795 46.333 16.0401V16.0401Z" fill="#07082E"/>
</g>
<defs>
<clipPath id="clip0_675_252">
<rect width="35" height="35" fill="white" transform="translate(11.333 9.39453)"/>
</clipPath>
</defs>
</svg>
